<svg id="Layer_1" data-name="Layer 1" xmlns="http://www.w3.org/2000/svg" viewBox="0 0 90 35"><defs><style>.cls-1{fill:#fff;}.cls-2{fill:#a8a8a8;opacity:0.75;}.cls-3{fill:#5b5b5b;}</style></defs><title>gavel_os_logo_text</title><rect class="cls-1" x="12.55" y="15" width="5" height="5"/><rect class="cls-1" x="17.55" y="15" width="5" height="5"/><rect class="cls-1" x="0.05" y="5" width="5" height="5"/><rect class="cls-2" x="0.05" y="10" width="5" height="5"/><rect class="cls-2" x="5.05" width="5" height="5"/><rect class="cls-2" x="15.05" y="25" width="5" height="5"/><rect class="cls-1" x="0.05" y="25" width="5" height="5"/><rect class="cls-2" x="5.05" y="30" width="5" height="5"/><rect class="cls-3" x="10.05" width="5" height="5"/><rect class="cls-3" x="10.05" y="30" width="5" height="5"/><rect class="cls-3" x="0.05" y="15" width="5" height="5"/><rect class="cls-2" x="0.05" y="20" width="5" height="5"/><rect class="cls-2" x="15.05" y="15" width="5" height="5"/><rect class="cls-2" x="15.05" y="20" width="5" height="5"/><path class="cls-1" d="M27.45,31.09h-3.9v-3.9h3.9V23.28h7.82v-3.9H27.45V15.47h7.82v3.91h3.9V35H27.45Zm7.82,0v-3.9H27.45v3.9Z"/><path class="cls-1" d="M47,15.47v7.81h3.91v7.81H54.8V23.28h3.9V15.47h3.91v7.81H58.7v7.81H54.8V35H50.89V31.09H47V23.28h-3.9V15.47Z"/><path class="cls-1" d="M78.23,31.09V35H70.42V31.09h-3.9V19.38h3.9V15.47h7.81v3.91h3.91v7.81H70.42v3.9ZM70.42,19.38v3.9h7.81v-3.9Z"/><path class="cls-1" d="M90,7.66V35h-3.9V7.66Z"/></svg>