<svg id="Layer_1" data-name="Layer 1" xmlns="http://www.w3.org/2000/svg" viewBox="0 0 150 35"><defs><style>.cls-1{fill:#a8a8a8;}.cls-1,.cls-3{opacity:0.75;}.cls-2,.cls-3{fill:#5b5b5b;}</style></defs><title>gavel_os_logo</title><rect x="12.5" y="15" width="5" height="5"/><rect x="17.5" y="15" width="5" height="5"/><rect y="5" width="5" height="5"/><rect class="cls-1" y="10" width="5" height="5"/><rect class="cls-1" x="5" width="5" height="5"/><rect class="cls-1" x="15" y="25" width="5" height="5"/><rect y="25" width="5" height="5"/><rect class="cls-1" x="5" y="30" width="5" height="5"/><rect class="cls-2" x="10" width="5" height="5"/><rect class="cls-2" x="10" y="30" width="5" height="5"/><rect class="cls-2" y="15" width="5" height="5"/><rect class="cls-1" y="20" width="5" height="5"/><rect class="cls-1" x="15" y="15" width="5" height="5"/><rect class="cls-1" x="15" y="20" width="5" height="5"/><path d="M29.87,31.09H26v-3.9h3.9V23.28h7.82v-3.9H29.87V15.47h7.82v3.91h3.9V35H29.87Zm7.82,0v-3.9H29.87v3.9Z"/><path d="M49.4,15.47v7.81h3.91v7.81h3.91V23.28h3.9V15.47H65v7.81H61.12v7.81h-3.9V35H53.31V31.09H49.4V23.28H45.5V15.47Z"/><path d="M80.65,31.09V35H72.84V31.09h-3.9V19.38h3.9V15.47h7.81v3.91h3.91v7.81H72.84v3.9ZM72.84,19.38v3.9h7.81v-3.9Z"/><path d="M92.37,7.66V35h-3.9V7.66Z"/><rect class="cls-2" x="104" y="5" width="5" height="5"/><rect class="cls-3" x="104" y="10" width="5" height="5"/><rect class="cls-3" x="109" width="5" height="5"/><rect class="cls-2" x="104" y="25" width="5" height="5"/><rect class="cls-3" x="109" y="30" width="5" height="5"/><rect class="cls-3" x="114" width="5" height="5"/><rect class="cls-3" x="114" y="30" width="5" height="5"/><rect class="cls-2" x="104" y="15" width="5" height="5"/><rect class="cls-3" x="104" y="20" width="5" height="5"/><rect class="cls-2" x="119" y="5" width="5" height="5"/><rect class="cls-3" x="119" y="10" width="5" height="5"/><rect class="cls-2" x="119" y="25" width="5" height="5"/><rect class="cls-2" x="119" y="15" width="5" height="5"/><rect class="cls-3" x="119" y="20" width="5" height="5"/><rect class="cls-2" x="130" y="5" width="5" height="5"/><rect class="cls-2" x="130" y="10" width="5" height="5"/><rect class="cls-3" x="135" width="5" height="5"/><rect class="cls-2" x="130" y="30" width="5" height="5"/><rect class="cls-2" x="135" y="30" width="5" height="5"/><rect class="cls-2" x="140" width="5" height="5"/><rect class="cls-3" x="140" y="30" width="5" height="5"/><rect class="cls-2" x="145" width="5" height="5"/><rect class="cls-3" x="135" y="15" width="5" height="5"/><rect class="cls-3" x="140" y="15" width="5" height="5"/><rect class="cls-2" x="145" y="25" width="5" height="5"/><rect class="cls-2" x="145" y="20" width="5" height="5"/></svg>